<svg width="31" height="30" viewBox="0 0 31 30" fill="none" xmlns="http://www.w3.org/2000/svg">
<mask id="path-1-inside-1_603_1807" fill="white">
<path d="M30.2595 15C30.2595 23.2843 23.6267 30 15.4447 30C7.2627 30 0.629883 23.2843 0.629883 15C0.629883 6.71573 7.2627 0 15.4447 0C23.6267 0 30.2595 6.71573 30.2595 15Z"/>
</mask>
<path d="M28.2595 15C28.2595 22.2032 22.4988 28 15.4447 28V32C24.7546 32 32.2595 24.3653 32.2595 15H28.2595ZM15.4447 28C8.39062 28 2.62988 22.2032 2.62988 15H-1.37012C-1.37012 24.3653 6.13478 32 15.4447 32V28ZM2.62988 15C2.62988 7.7968 8.39062 2 15.4447 2V-2C6.13478 -2 -1.37012 5.63466 -1.37012 15H2.62988ZM15.4447 2C22.4988 2 28.2595 7.7968 28.2595 15H32.2595C32.2595 5.63466 24.7546 -2 15.4447 -2V2Z" fill="#001B23" mask="url(#path-1-inside-1_603_1807)"/>
<path d="M14.6054 21V11.388H16.3334V21H14.6054ZM13.1294 12.756V11.388H16.3334V12.756H13.1294ZM15.0914 9.84C14.7074 9.84 14.4194 9.738 14.2274 9.534C14.0474 9.33 13.9574 9.072 13.9574 8.76C13.9574 8.448 14.0474 8.19 14.2274 7.986C14.4194 7.782 14.7074 7.68 15.0914 7.68C15.4754 7.68 15.7574 7.782 15.9374 7.986C16.1294 8.19 16.2254 8.448 16.2254 8.76C16.2254 9.072 16.1294 9.33 15.9374 9.534C15.7574 9.738 15.4754 9.84 15.0914 9.84Z" fill="#001B23"/>
</svg>
