<svg width="630" height="582" viewBox="0 0 630 582" fill="none" xmlns="http://www.w3.org/2000/svg">
<path d="M43.3518 292.077L315 0.733182L586.648 292.077H43.3518Z" stroke="#4EADAA"/>
<path d="M586.648 289.923L315 581.267L43.3518 289.923L586.648 289.923Z" stroke="#4EADAA"/>
<path d="M261.648 306.656C260.8 305.68 260.048 304.616 259.392 303.464C258.752 302.328 258.256 301.072 257.904 299.696C257.552 298.304 257.376 296.76 257.376 295.064C257.376 293.368 257.552 291.832 257.904 290.456C258.272 289.08 258.776 287.832 259.416 286.712C260.072 285.592 260.816 284.576 261.648 283.664H264.288C263.296 284.736 262.448 285.848 261.744 287C261.056 288.152 260.528 289.392 260.16 290.72C259.808 292.032 259.632 293.48 259.632 295.064C259.632 296.648 259.808 298.112 260.16 299.456C260.512 300.784 261.032 302.032 261.72 303.2C262.424 304.384 263.28 305.536 264.288 306.656H261.648ZM271.599 302.72C270.687 302.72 269.847 302.552 269.079 302.216C268.311 301.88 267.639 301.408 267.063 300.8C266.503 300.192 266.063 299.488 265.743 298.688C265.439 297.888 265.287 297.024 265.287 296.096V295.664C265.287 294.752 265.439 293.896 265.743 293.096C266.047 292.296 266.471 291.592 267.015 290.984C267.575 290.376 268.231 289.904 268.983 289.568C269.751 289.216 270.599 289.04 271.527 289.04C272.503 289.04 273.391 289.248 274.191 289.664C274.991 290.064 275.647 290.696 276.159 291.56C276.671 292.424 276.959 293.544 277.023 294.92L276.063 293.384V284.768H278.367V302.288H276.543V296.6H277.215C277.151 298.056 276.847 299.24 276.303 300.152C275.759 301.048 275.071 301.704 274.239 302.12C273.423 302.52 272.543 302.72 271.599 302.72ZM271.911 300.704C272.695 300.704 273.407 300.528 274.047 300.176C274.687 299.824 275.199 299.32 275.583 298.664C275.967 297.992 276.159 297.208 276.159 296.312V295.208C276.159 294.328 275.959 293.584 275.559 292.976C275.175 292.352 274.655 291.88 273.999 291.56C273.359 291.224 272.655 291.056 271.887 291.056C271.039 291.056 270.287 291.256 269.631 291.656C268.991 292.056 268.487 292.616 268.119 293.336C267.767 294.056 267.591 294.904 267.591 295.88C267.591 296.856 267.775 297.712 268.143 298.448C268.511 299.168 269.023 299.728 269.679 300.128C270.335 300.512 271.079 300.704 271.911 300.704ZM283.418 302.288V289.472H285.722V302.288H283.418ZM281.45 291.296V289.472H285.722V291.296H281.45ZM284.066 287.408C283.554 287.408 283.17 287.272 282.914 287C282.674 286.728 282.554 286.384 282.554 285.968C282.554 285.552 282.674 285.208 282.914 284.936C283.17 284.664 283.554 284.528 284.066 284.528C284.578 284.528 284.954 284.664 285.194 284.936C285.45 285.208 285.578 285.552 285.578 285.968C285.578 286.384 285.45 286.728 285.194 287C284.954 287.272 284.578 287.408 284.066 287.408ZM297.929 302.288V298.448H297.545V294.008C297.545 293.128 297.313 292.464 296.849 292.016C296.401 291.568 295.737 291.344 294.857 291.344C294.361 291.344 293.849 291.352 293.321 291.368C292.793 291.384 292.289 291.4 291.809 291.416C291.329 291.432 290.913 291.456 290.561 291.488V289.472C290.913 289.44 291.281 289.416 291.665 289.4C292.065 289.368 292.473 289.352 292.889 289.352C293.305 289.336 293.705 289.328 294.089 289.328C295.401 289.328 296.473 289.488 297.305 289.808C298.137 290.112 298.753 290.616 299.153 291.32C299.553 292.024 299.753 292.976 299.753 294.176V302.288H297.929ZM293.729 302.624C292.769 302.624 291.937 302.464 291.233 302.144C290.545 301.808 290.009 301.328 289.625 300.704C289.257 300.08 289.073 299.328 289.073 298.448C289.073 297.536 289.273 296.776 289.673 296.168C290.089 295.56 290.689 295.104 291.473 294.8C292.257 294.48 293.201 294.32 294.305 294.32H297.785V296.048H294.209C293.281 296.048 292.569 296.272 292.073 296.72C291.577 297.168 291.329 297.744 291.329 298.448C291.329 299.152 291.577 299.72 292.073 300.152C292.569 300.584 293.281 300.8 294.209 300.8C294.753 300.8 295.273 300.704 295.769 300.512C296.265 300.304 296.673 299.968 296.993 299.504C297.329 299.024 297.513 298.368 297.545 297.536L298.169 298.448C298.089 299.36 297.865 300.128 297.497 300.752C297.145 301.36 296.649 301.824 296.009 302.144C295.385 302.464 294.625 302.624 293.729 302.624ZM308.829 307.28C308.237 307.28 307.637 307.256 307.029 307.208C306.437 307.16 305.869 307.096 305.325 307.016V305.072C305.901 305.152 306.501 305.216 307.125 305.264C307.765 305.328 308.365 305.36 308.925 305.36C310.093 305.36 311.021 305.2 311.709 304.88C312.413 304.576 312.917 304.088 313.221 303.416C313.541 302.76 313.701 301.912 313.701 300.872V298.424L314.469 296.6C314.421 297.896 314.149 298.976 313.653 299.84C313.157 300.688 312.509 301.328 311.709 301.76C310.925 302.176 310.053 302.384 309.093 302.384C308.197 302.384 307.373 302.216 306.621 301.88C305.885 301.528 305.245 301.048 304.701 300.44C304.173 299.832 303.757 299.136 303.453 298.352C303.165 297.552 303.021 296.712 303.021 295.832V295.4C303.021 294.504 303.173 293.672 303.477 292.904C303.781 292.12 304.205 291.44 304.749 290.864C305.293 290.288 305.941 289.84 306.693 289.52C307.461 289.2 308.301 289.04 309.213 289.04C310.285 289.04 311.229 289.272 312.045 289.736C312.861 290.184 313.501 290.848 313.965 291.728C314.445 292.592 314.709 293.656 314.757 294.92L314.085 294.944V289.472H315.909V300.776C315.909 302.312 315.669 303.552 315.189 304.496C314.725 305.456 313.973 306.16 312.933 306.608C311.909 307.056 310.541 307.28 308.829 307.28ZM309.525 300.272C310.293 300.272 310.989 300.104 311.613 299.768C312.253 299.432 312.757 298.952 313.125 298.328C313.509 297.688 313.701 296.928 313.701 296.048V294.944C313.701 294.08 313.501 293.352 313.101 292.76C312.717 292.168 312.213 291.72 311.589 291.416C310.965 291.112 310.285 290.96 309.549 290.96C308.717 290.96 307.981 291.152 307.341 291.536C306.701 291.92 306.205 292.464 305.853 293.168C305.501 293.856 305.325 294.672 305.325 295.616C305.325 296.56 305.501 297.384 305.853 298.088C306.221 298.792 306.717 299.336 307.341 299.72C307.981 300.088 308.709 300.272 309.525 300.272ZM320.177 302.288V289.472H322.001V294.752H321.905C321.905 292.88 322.313 291.512 323.129 290.648C323.961 289.768 325.201 289.328 326.849 289.328H327.281V291.392H326.465C325.185 291.392 324.201 291.736 323.513 292.424C322.825 293.096 322.481 294.072 322.481 295.352V302.288H320.177ZM337.726 302.288V298.448H337.342V294.008C337.342 293.128 337.11 292.464 336.646 292.016C336.198 291.568 335.534 291.344 334.654 291.344C334.158 291.344 333.646 291.352 333.118 291.368C332.59 291.384 332.086 291.4 331.606 291.416C331.126 291.432 330.71 291.456 330.358 291.488V289.472C330.71 289.44 331.078 289.416 331.462 289.4C331.862 289.368 332.27 289.352 332.686 289.352C333.102 289.336 333.502 289.328 333.886 289.328C335.198 289.328 336.27 289.488 337.102 289.808C337.934 290.112 338.55 290.616 338.95 291.32C339.35 292.024 339.55 292.976 339.55 294.176V302.288H337.726ZM333.526 302.624C332.566 302.624 331.734 302.464 331.03 302.144C330.342 301.808 329.806 301.328 329.422 300.704C329.054 300.08 328.87 299.328 328.87 298.448C328.87 297.536 329.07 296.776 329.47 296.168C329.886 295.56 330.486 295.104 331.27 294.8C332.054 294.48 332.998 294.32 334.102 294.32H337.582V296.048H334.006C333.078 296.048 332.366 296.272 331.87 296.72C331.374 297.168 331.126 297.744 331.126 298.448C331.126 299.152 331.374 299.72 331.87 300.152C332.366 300.584 333.078 300.8 334.006 300.8C334.55 300.8 335.07 300.704 335.566 300.512C336.062 300.304 336.47 299.968 336.79 299.504C337.126 299.024 337.31 298.368 337.342 297.536L337.966 298.448C337.886 299.36 337.662 300.128 337.294 300.752C336.942 301.36 336.446 301.824 335.806 302.144C335.182 302.464 334.422 302.624 333.526 302.624ZM343.778 302.288V289.472H345.602V294.968H345.314C345.314 293.72 345.474 292.664 345.794 291.8C346.13 290.92 346.626 290.248 347.282 289.784C347.938 289.32 348.77 289.088 349.778 289.088H349.874C350.882 289.088 351.714 289.32 352.37 289.784C353.042 290.248 353.538 290.92 353.858 291.8C354.178 292.664 354.338 293.72 354.338 294.968H353.666C353.666 293.72 353.834 292.664 354.17 291.8C354.506 290.92 355.002 290.248 355.658 289.784C356.33 289.32 357.17 289.088 358.178 289.088H358.274C359.282 289.088 360.122 289.32 360.794 289.784C361.466 290.248 361.962 290.92 362.282 291.8C362.618 292.664 362.786 293.72 362.786 294.968V302.288H360.482V294.464C360.482 293.424 360.226 292.624 359.714 292.064C359.202 291.488 358.49 291.2 357.578 291.2C356.634 291.2 355.874 291.504 355.298 292.112C354.722 292.704 354.434 293.536 354.434 294.608V302.288H352.13V294.464C352.13 293.424 351.874 292.624 351.362 292.064C350.85 291.488 350.138 291.2 349.226 291.2C348.282 291.2 347.522 291.504 346.946 292.112C346.37 292.704 346.082 293.536 346.082 294.608V302.288H343.778ZM367.352 306.656C368.2 305.68 368.944 304.616 369.584 303.464C370.24 302.328 370.744 301.072 371.096 299.696C371.448 298.304 371.624 296.76 371.624 295.064C371.624 293.368 371.44 291.832 371.072 290.456C370.72 289.08 370.216 287.832 369.56 286.712C368.92 285.592 368.184 284.576 367.352 283.664H364.712C365.704 284.736 366.544 285.848 367.232 287C367.936 288.152 368.464 289.392 368.816 290.72C369.184 292.032 369.368 293.48 369.368 295.064C369.368 296.648 369.192 298.112 368.84 299.456C368.488 300.784 367.96 302.032 367.256 303.2C366.568 304.384 365.72 305.536 364.712 306.656H367.352Z" fill="#F7FFFC"/>
</svg>
